<svg xmlns="http://www.w3.org/2000/svg" width="1200" height="820" viewBox="0 0 1200 820">
  <rect width="1200" height="820" fill="#faf7f8"/><rect x="80" y="70" width="1040" height="680" rx="28" fill="#fff" stroke="#e9d7dc" stroke-width="2"/>
  <rect x="80" y="70" width="1040" height="118" rx="28" fill="#7a0019"/><rect x="80" y="150" width="1040" height="38" fill="#7a0019"/><text x="140" y="140" font-family="Arial, sans-serif" font-size="40" font-weight="700" fill="#fff">users</text><text x="140" y="236" font-family="Arial, sans-serif" font-size="23" fill="#6b7280">บัญชีผู้ดูแลระบบ</text><line x1="120" y1="270" x2="1080" y2="270" stroke="#eadde0" stroke-width="2"/>
  <g font-family="Arial, sans-serif" font-size="27"><text x="140" y="328" font-weight="700" fill="#7a0019">PK</text><text x="240" y="328" font-weight="700" fill="#1f2937">id</text><text x="550" y="328" fill="#6b7280">INT · AUTO_INCREMENT</text><text x="140" y="390" fill="#7a0019">UQ</text><text x="240" y="390" font-weight="700" fill="#1f2937">username</text><text x="550" y="390" fill="#6b7280">VARCHAR(255) · NOT NULL</text><text x="140" y="452" fill="#7a0019">•</text><text x="240" y="452" font-weight="700" fill="#1f2937">password</text><text x="550" y="452" fill="#6b7280">VARCHAR(255) · NOT NULL</text><text x="140" y="514" fill="#7a0019">•</text><text x="240" y="514" font-weight="700" fill="#1f2937">first_name</text><text x="550" y="514" fill="#6b7280">VARCHAR(100) · NOT NULL</text><text x="140" y="576" fill="#7a0019">•</text><text x="240" y="576" font-weight="700" fill="#1f2937">last_name</text><text x="550" y="576" fill="#6b7280">VARCHAR(100) · NOT NULL</text><text x="140" y="638" fill="#7a0019">•</text><text x="240" y="638" font-weight="700" fill="#1f2937">saka_path</text><text x="550" y="638" fill="#6b7280">VARCHAR(50) · DEFAULT 'all'</text><text x="140" y="700" fill="#7a0019">•</text><text x="240" y="700" font-weight="700" fill="#1f2937">can_edit</text><text x="550" y="700" fill="#6b7280">TINYINT(1) · DEFAULT 1</text></g>
</svg>
